<?xml version="1.0" encoding="utf-8"?>

<!DOCTYPE svg PUBLIC "-//W3C//DTD SVG 1.0//EN" "http://www.w3.org/TR/2001/REC-SVG-20010904/DTD/svg10.dtd">
<!-- Uploaded to: SVG Repo, www.svgrepo.com, Generator: SVG Repo Mixer Tools -->
<svg
  width="81"
  height="68"
  viewBox="0 0 638.71 536.98"
  fill="none"
  version="1.0"
  id="Layer_1"
  xmlns="http://www.w3.org/2000/svg"
  xmlns:xlink="http://www.w3.org/1999/xlink"
  xml:space="preserve"
>
  <g>
    <path
      fill="#FFFFFF"
      d="M442.64,515.4c-0.83,0.07-2.23,0.2-3.7,0.62c-2.76,0.79-5.43,1.86-8.2,2.6c-3.34,0.9-6.61,2.14-9.98,2.86 c-2.76,0.59-5.2,1.73-7.54,2.97c-2.14,0.33-4.54,0.11-6.17,1.12c-1.64,1.02-3.36,0.07-4.96,1.24c-1.22,0.9-3.29,0.64-4.99,0.9 c-0.13,0.02-0.27-0.04-0.38,0.01c-3.14,1.37-6.45,1.99-9.83,2.33c-1.49,1.81-4.04-0.27-5.54,1.52c-2.59,0.26-5.18,0.7-7.78,0.72 c-2.51,0.02-4.85,0.56-7.19,1.31c-0.23,0.07-0.43,0.25-0.65,0.27c-2.72,0.27-5.45,0.49-8.16,0.8c-1.57,0.18-3.25,0.21-4.67,0.82 c-2.71,1.16-5.47,0.44-8.19,0.73c-2.21,0.23-4.53-0.71-6.66,0.7c-0.34,0.22-1.14-0.22-1.71-0.4c-1.25-0.38-1.25-0.39-2.93,0.41 c-0.87-0.26-1.66-0.68-2.47-0.7c-3.21-0.08-6.43-0.11-9.64,0c-1.57,0.06-3.14,0.73-4.69,0.69c-3.63-0.09-7.19-1.08-10.87-0.77 c-1.02,0.08-2.09-0.49-3.15-0.71c-1.04-0.22-2.1-0.37-3.46-0.6c-0.89,0.5-2.07,1.01-3.51,0.36c-0.75-0.34-1.64-0.47-2.48-0.52 c-4.9-0.29-9.85-0.23-14.7-0.91c-2.61-0.37-5.18-0.54-7.79-0.68c-1.32-0.07-2.83-0.15-3.87-0.82c-1.34-0.87-2.93-0.13-3.9-0.79 c-1.25-0.85-2.44-0.39-3.6-0.69c-4.69-1.19-9.58-1.22-14.23-2.85c-1.87-0.66-3.92-0.92-5.87-1.67c-1.79-0.69-3.96-0.32-5.8-0.92 c-4.77-1.55-9.95-1.66-14.41-4.32c-1.97-1.18-4.43-1.3-6.6-1.65c-4.85-0.78-9.22-2.6-13.47-4.81c-3.61-1.88-7.47-3.08-11.23-4.54 c-2.34-0.91-4.68-1.68-6.86-3.04c-1.33-0.83-2.94-1.43-4.67-1.78c-2.38-0.48-4.57-1.94-6.81-3.03c-3.1-1.52-6.23-3-9.24-4.67 c-1.18-0.66-2.41-1.04-3.61-1.53c-1.61-0.67-3.26-1.48-4.69-2.72c-1.7-1.47-3.79-2.53-5.81-3.59c-2.84-1.49-5.24-3.54-7.8-5.42 c-3.04-2.24-5.98-4.62-9.14-6.71c-2.95-1.95-6.13-3.77-7.87-7.15c-0.29-0.57-1.12-0.86-1.69-1.28c-2.08-1.5-4.16-2.99-6.23-4.51 c-0.31-0.22-0.57-0.52-0.82-0.81c-2.36-2.81-4.95-5.37-8.09-7.32c-0.11-0.07-0.22-0.16-0.27-0.27c-1.27-3.08-4.32-4.14-6.7-5.99 c-0.96-0.74-1.54-1.94-2.4-2.83c-1.3-1.37-2.38-2.89-3.79-4.2c-2.77-2.56-5.37-5.37-7.59-8.42c-0.83-1.14-2.18-1.4-2.81-2.59 c-0.67-1.27-1.33-2.58-2.2-3.71c-0.85-1.11-1.99-2-2.96-3.03c-2.79-2.94-4.89-6.42-6.72-9.95c-1.94-3.74-4.17-7.28-6.39-10.83 c-1.31-2.1-2.14-4.31-2.31-6.81c-3.15-3.5-5.09-7.8-7.14-11.87c-1.26,0.39-2.48,0.95-3.75,1.11c-3.39,0.43-6.54,1.85-10.06,1.88 c-3.66,0.04-6.95-1.36-10.44-1.91c-1.87-0.3-3.7-0.96-5.49-1.61c-2.55-0.92-4.7-2.63-6.63-4.41c-2.77-2.56-5.45-5.33-7.59-8.42 c-1.44-2.08-2.86-4.39-2.91-7.28c-0.04-2.11-0.7-4.3-1.5-6.28c-1.44-3.6-0.44-6.94,0.5-10.38c0.57-2.11,0.92-4.28,1.46-6.92 c2.22-4.81,5.54-9.43,10.5-12.95c-0.43-1.86-2.47-2.2-3.76-3.08c-2.45-1.69-4.28-3.93-6.3-5.99c-0.99-1.01-1.47-2.5-2.38-3.61 c-2.11-2.57-2.1-5.83-3.07-8.76c-0.68-2.06-0.41-4.35-1.51-6.32c-0.16-0.29-0.16-0.83,0-1.13c1.35-2.58,0.29-5.44,1-8.07 c0.65-2.42,1.63-4.79,1.97-7.25c0.19-1.35,1.15-1.87,1.68-2.8c4.04-7.02,10.41-11.11,17.84-13.71c1.7-0.59,3.62-0.53,5.33-1.11 c2.7-0.91,5.44-0.74,8.18-0.71c0.96,0.01,1.86,0.09,2.87,0.49c1.23,0.49,2.88-0.06,4.35-0.17c0.7-0.05,1.7-0.41,2.03-0.09 c1.22,1.18,2.86-0.18,3.94,0.78c1.17,1.04,2.47,0.09,4.02,0.82c0-1.06-0.06-1.79,0.01-2.5c0.23-2.47,0.18-5.03,0.9-7.35 c0.34-1.09,0.58-2.1,0.62-3.2c0.04-1.48,0.09-2.89,0.71-4.34c0.55-1.29-0.43-3.02,0.85-4.28c-0.43-2.16,0.06-4.41,0.91-6.17 c1.03-2.12,0.25-4.32,1.27-6.44c0.91-1.89,0.33-4.45,0.98-6.53c0.95-3.01,0.7-6.22,2.02-9.18c0.77-1.72,0.7-3.82,0.98-5.76 c0.23-1.6-0.5-3.32,0.48-4.81c0.85-1.29-0.48-3.07,1.03-4.23c0.25-0.19,0.11-0.99,0.02-1.5c-0.56-3.43,0.58-6.75,0.96-10.07 c0.27-2.34,0.44-4.68,0.62-7.03c0.04-0.56,0.46-1.09,0.72-1.68c-0.23-0.59-0.76-1.28-0.71-1.92c0.25-2.98-0.79-6.04,0.67-8.97 c0.36-0.72,0.03-1.77,0.06-2.67c0.25-7.61,0.33-15.22,0.86-22.81c0.21-2.99,0.78-6.06,1.7-8.92c0.37-1.16-0.76-1.63-0.27-2.55 c0.39-0.72,0.74-1.57,0.77-2.37c0.18-5.41,1.28-10.63,2.99-15.74c0.15-0.46,0.12-0.99,0.12-1.49c0.01-1.67-0.4-3.48,0.12-4.97 c0.56-1.6,0.1-3.42,0.8-4.66c0.83-1.47-0.07-3.33,1.41-4.45c-0.43-3.28,1.74-6.14,1.54-9.39c1.62-1.83,0.34-4.26,1.41-6.37 c0.89-1.75,0.4-4.16,0.96-6.15c0.69-2.46,1.55-4.85,1.56-6.88c1.4-3.19,2.78-5.85,3.73-8.66c0.82-2.42,2-4.58,3.34-6.72 c0.94-1.51,1.98-2.94,2.54-4.73c1.18-3.73,3.5-6.99,6.06-9.76c2.55-2.78,4.1-6.11,6.34-9.03c2.64-3.44,4.89-7.11,8.74-9.42 c0.96-0.58,1.7-1.56,2.47-2.43c2.98-3.39,6.86-5.59,10.6-7.94c3.56-2.23,7.33-4.1,10.85-6.43c2.04-1.35,4.51-2.38,6.91-2.74 c2.9-0.43,5.62-1.51,8.58-1.81c2.78-0.27,5.69-0.87,8.31-2.16c0.1-0.05,0.25-0.01,0.38-0.01c5.44,0.05,10.81-1.32,16.26-0.76 c1.45,0.15,2.86,0.6,4.31,0.73c1.4,0.13,2.92-0.29,4.21,0.11c1.45,0.45,2.99,0.31,4.31,0.77c4.42,1.55,9.1,2,13.52,3.63 c2.06,0.76,4.4,1.24,6.64,1.64c2.97,0.52,5.35,2.2,7.67,3.79c1.66,1.14,3.49,2,5.21,2.29c3.78,0.63,6.7,2.7,9.62,4.74 c3.7,2.58,7.03,5.69,11.01,7.88c0.54,0.3,0.93,0.88,1.37,1.34c2.95,3.08,6.1,5.87,9.68,8.25c1.89,1.26,3.61,3.01,4.87,4.9 c1.21,1.82,2.68,3.31,4.19,4.79c3.65,3.59,7.12,7.28,9.57,11.85c0.81,1.5,2.16,2.7,3.22,4.07c0.59,0.77,1.18,1.56,1.63,2.41 c1.72,3.22,3.57,6.34,6,9.09c0.55,0.63,1.16,1.36,1.34,2.13c0.96,4.16,4.09,7.05,6.06,10.61c1.16,2.1,2.61,4.05,3.77,6.16 c0.76,1.38,1.48,2.73,2.42,4.03c1.52,2.11,2.23,4.71,3.37,7.06c1.24,2.57,2.79,4.96,3.87,7.66c1.06,2.64,2.83,5,4.27,7.49 c0.17,0.3,0.21,0.68,0.4,1.33c3.46-0.35,7.09,0.85,10.63-0.71c0.54-0.24,1.35-0.23,1.9,0c3.55,1.47,7.25,0.37,10.69,0.77 c1.65-2.95,3.49-5.65,4.73-8.6c1.48-3.53,3.71-6.66,5.06-10.24c0.76-2.01,1.91-3.85,3.13-5.66c1.25-1.86,1.94-4.09,3.09-6.03 c1.12-1.88,2.52-3.59,3.78-5.38c1.19-1.69,2.42-3.36,3.52-5.1c0.43-0.69,0.61-1.55,0.84-2.35c0.71-2.56,2.87-4.18,4.11-6.39 c1.05-1.88,2.43-3.55,3.32-5.56c0.78-1.74,1.98-3.36,3.24-4.82c2.25-2.61,4.09-5.48,5.97-8.34c0.14-0.21,0.36-0.37,0.54-0.55 c3.85-3.87,7.75-7.68,11.21-11.92c1.88-2.3,4.3-4.07,6.95-5.51c0.65-0.35,1.17-1.02,1.64-1.61c2.93-3.69,6.98-6.07,10.6-8.92 c1.81-1.43,3.68-2.85,5.6-4.12c2.99-1.97,5.84-4.13,9.64-4.68c3.08-0.45,5.7-2.47,8.25-4.17c2.21-1.48,4.64-1.93,7.02-2.65 c3.32-1.01,6.7-1.84,10.07-2.69c0.95-0.24,1.95-0.23,2.91-0.44c0.81-0.18,1.58-0.56,2.39-0.74c3.85-0.88,7.72-1.42,11.69-1.72 c2.84-0.21,5.7-0.69,8.56-0.57c3.11,0.12,6.22,0.68,9.32,0.68c3.01,0,5.62,1.75,8.62,1.6c0.86,1.02,2.06,0.65,3.15,0.8 c1.07,0.14,2.09,0.61,3.16,0.72c3.75,0.41,7.08,2.18,10.66,3.15c0.65,0.18,1.06,1.11,1.7,1.47c3.97,2.24,8.06,4.28,11.77,6.96 c2.54,0.29,3.88,2.5,5.71,3.82c3.26,2.34,6.1,5.29,9.02,8.09c3.39,3.25,5.63,7.38,8.21,11.24c1.36,2.03,2.81,4.02,4.37,5.9 c2.34,2.82,4.07,5.94,5.28,9.39c0.27,0.77,1.06,1.35,1.49,2.08c1.04,1.75,2.08,3.5,3,5.31c0.92,1.8,1.67,3.75,2.25,5.61 c0.59,1.9,1.74,3.41,2.12,5.26c0.55,2.23,0.94,4.51,1.7,6.67c0.49,1.4,0.01,2.8,0.81,4.31c0.92,1.73,0.58,4.09,0.95,6.15 c0.5,2.86,0.92,5.76,1.81,8.51c0.57,1.74,0.72,3.54,1.15,5.28c1.01,4.06,1.69,8.19,1.75,12.45c0.03,2.59,1.06,5.17,1.67,7.75 c0.08,0.33,0.49,0.61,0.52,0.93c0.29,2.72,0.8,5.45,0.69,8.16c-0.06,1.52,2.14,2.9,0.25,4.44c1.32,1.02-0.14,2.99,1.35,3.95 c0.27,2.46,0.83,4.92,0.77,7.37c-0.18,7.76,1.39,15.44,0.82,23.2c1.07,2.51,0.27,5.27,0.86,7.76c1.27,5.3,0.33,10.61,0.68,15.9 c0.11,1.59-0.2,3.15,0.69,4.74c0.69,1.22-0.23,2.81,0.68,4.36c0.8,1.36,0.28,3.28,0.81,5.03c0.78,2.56,0.69,5.4,0.89,8.12 c0.14,1.84,0.64,3.65,1.05,5.38c0.29,1.22-0.01,2.62,0.58,3.57c0.75,1.2,0.51,2.39,0.72,3.58c0.51,2.85,0.86,5.8,1.91,8.46 c0.6,1.52-0.48,3.38,1.14,4.54c0.26,2.72,0.63,5.44,0.74,8.17c0.09,2.35,0.81,4.56,1.3,6.81c0.28,1.26,0.63,2.41-0.21,3.16 c0.76,2.28,1.47,4.42,2.24,6.74c1.01-0.1,2.12,0.56,3.09-0.51c0.14-0.15,0.45-0.2,0.68-0.19c5.83,0.16,11.63-1.7,17.4-0.69 c5.76,1.01,11.43,2.38,16.35,6.19c3.43,2.66,6.17,5.81,8.81,9.1c1.17,1.46,1.8,3.36,2.67,5.04c0.31,2.04,0.32,4.22,1.06,6.12 c0.37,0.97,0.52,1.85,0.67,2.81c0.15,0.94,0.75,1.86,0.69,2.77c-0.13,2.07-0.35,4.18-0.91,6.17c-0.55,1.98-1.18,3.91-1.42,5.98 c-0.15,1.24-0.87,2.46-1.49,3.6c-3.21,5.9-7.93,10.34-13.62,13.81c-0.29,0.18-0.68,0.18-1.19,0.31c1.77,1.74,3.4,3.36,5.05,4.97 c2.48,2.42,4.34,5.31,5.86,8.38c0.73,1.47,0.91,3.23,1.22,4.89c0.62,3.34,2.36,6.51,1.88,10c-0.4,2.85-1.24,5.65-1.85,8.47 c-0.52,2.36-1.41,4.51-2.66,6.62c-2.21,3.72-5.14,6.73-8.29,9.59c-0.62,0.57-1.43,0.93-2.08,1.47c-2.12,1.77-6.36,3.58-9.17,3.96 c-1.07,0.14-2.1,0.51-3.15,0.75c-1.18,0.27-2.35,0.64-3.54,0.74c-1.12,0.09-2.11,0.37-3.18,0.72c-1.25,0.41-2.62-0.37-3.91-0.56 c-1.82-0.27-3.66-0.42-5.45-0.9c-0.92-0.25-1.83-0.57-2.77-0.75c-0.95-0.19-2.08,0.39-2.83-0.75c-0.94,0.94-1.9,1.63-2.11,3.27 c-0.19,1.55-1.47,2.95-2.18,4.46c-1.41,3.01-3.21,5.83-4.21,9.06c-0.52,1.67-1.8,3.1-2.74,4.64c-2.06,3.39-4.07,6.8-6.18,10.16 c-2.15,3.42-4.38,6.75-7.03,9.85c-3.87,4.54-7.46,9.32-11.52,13.71c-0.91,2.87-3.92,3.64-5.71,5.66c-1.79,2.02-3.63,4.06-5.76,5.68 c-1.48,1.13-2.97,2.07-3.71,3.85c-4.21,2.39-6.8,6.6-10.74,9.37c-3.65,2.57-7.46,5.06-10.37,8.6c-0.75,0.92-1.89,1.55-2.92,2.2 c-4.54,2.87-8.02,7.08-12.46,10c-3.14,2.07-6.01,4.59-9.34,6.28c-2.57,1.31-5.02,2.77-7.5,4.22c-2.46,1.44-5.1,2.58-7.63,3.9 c-2.44,1.26-4.85,2.58-7.28,3.85c-3.59,1.88-7.37,3.36-10.88,5.38c-1.54,0.89-3.15,1.94-4.84,2.25 C447.48,512.67,445.55,514.32,442.64,515.4z"
    ></path>
    <path
      fill="#87C7EC"
      d="M376.26,499.62c1.23-0.56,2.22-1.4,3.18-1.38c3.26,0.07,6.39-0.28,9.41-1.59c0.98-0.42,2.1-0.78,3.14-0.75 c2.3,0.07,4.25-0.95,6.24-1.77c1.7-0.7,3.34-1.26,5.22-1.43c2.87-0.26,5.77-0.89,8.28-2.31c3.73-2.1,7.76-2.61,11.93-3.19 c1.15-0.64,2.33-1.71,3.68-1.98c4.79-0.97,8.69-3.89,13.13-5.6c0.77-0.3,1.5-0.69,2.93-1.35c0.85-1.46,2.92-2.49,5.18-3.3 c1-0.36,1.93-0.97,2.82-1.56c2.8-1.87,5.81-3.34,8.93-4.53c1.25-0.48,2.44-0.91,3.55-1.71c3.13-2.25,5.99-4.9,9.8-6.16 c1-0.33,1.64-1.73,2.81-3.04c2.66-0.7,5.23-2.68,7.11-5.31c1.04-1.45,2.4-2.21,3.72-3.13c1.45-1.01,2.73-2.11,3.32-3.71 c2.89-1.23,5.73-2.36,7-5.54c3.53-0.46,4.66-4.34,7.76-5.47c0.44-0.16,1.04-0.69,1.05-1.07c0.08-2.17,2.39-1.92,3.33-3.19 c0.97-1.31,2.33-2.33,3.56-3.43c1.4-1.26,3.19-2.24,4.17-3.75c1.54-2.39,3.7-4.12,5.54-6.18c1.89-2.12,4.46-3.69,5.23-6.72 c0.14-0.54,0.88-0.91,1.32-1.38c2.74-2.99,5.46-6,7.09-9.8c0.19-0.44,0.5-0.85,0.84-1.19c2.25-2.32,3.31-5.32,4.48-8.18 c1.2-2.95,2.34-5.85,4.67-7.99c0.05-0.6-0.11-1.32,0.16-1.57c2.04-1.91,2.26-4.8,3.83-6.91c0.51-0.68,0.54-1.32,0.72-2.04 c0.5-2.1,1.06-4.14,2.46-5.94c0.99-1.28,1.85-2.94,2.03-4.51c0.21-1.74,0.73-3.33,1.36-4.87c0.46-1.13,0.43-1.89-0.37-2.59 c0.33-0.66,0.64-1.3,0.95-1.93c0.27-0.53,0.57-1.05,0.81-1.59c0.61-1.37,1.4-4.69,1.03-5.2c-1.28-1.77-0.94-3.95-0.43-5.5 c0.78-2.41,0.57-4.73,0.56-7.07c-0.01-2.21-0.57-4.41-0.69-6.63c-0.13-2.31-0.03-4.63-0.03-6.95c0-1.28,0-2.57,0-3.56 c-0.62-1.19-1.12-2.14-1.4-2.68c0.27-1.21,0.87-2.35,0.55-2.77c-0.99-1.29-0.13-2.94-0.79-3.92c-1.01-1.49-0.51-2.93-0.64-4.38 c-0.11-1.19-0.87-2.35-0.08-3.64c0.23-0.38-0.09-1.19-0.31-1.75c-1.13-2.98-1.46-6.16-1.83-9.24c-0.53-4.35,0.04-8.8-0.8-13.19 c-0.3-1.56-0.51-3.22-1.25-4.5c-0.96-1.65,0.55-3.61-1.01-5c-1-4.39-2.54-8.67-2.5-13.26c0.01-1.04-0.45-2.09-0.68-3.04 c0.31-0.45,0.58-0.84,0.8-1.15c-0.86-1.91-1.06-3.42-0.87-5.4c0.08-0.76,0.3-1.71-0.04-2.28c-1.05-1.78-0.71-3.66-0.69-5.5 c0.02-2.25-0.68-4.3-1.37-6.39c-0.41-1.25-0.76-2.55-0.94-3.85c-0.16-1.14,0.07-2.32-0.06-3.47c-0.13-1.19-0.46-2.37-0.75-3.54 c-0.2-0.81-0.66-1.58-0.73-2.39c-0.12-1.53,0.07-3.09-0.06-4.63c-0.13-1.58-0.6-3.13-0.71-4.7c-0.13-1.79-0.03-3.6-0.03-4.9 c-2.35-4.29-1.62-8.38-1.18-12.45c0.17-1.61,0.85-3.49,0.26-4.79c-0.75-1.66-0.39-3.19-0.64-4.76c-0.21-1.32-0.61-2.61-0.73-3.93 c-0.13-1.4,0-2.83-0.05-4.24c-0.01-0.32-0.38-0.61-0.48-0.95c-0.62-2.06-1.62-4.11-1.71-6.2c-0.1-2.26-0.29-4.52-0.98-6.59 c-0.58-1.73-0.62-3.39-0.68-5.12c-0.02-0.62,0.11-1.45-0.23-1.81c-0.99-1.03-0.11-2.3-0.58-3.25c-0.58-1.17-0.81-2.3-0.73-3.57 c0.05-0.77,0.23-1.64-0.05-2.29c-1.3-3.03-1.56-6.19-1.5-9.42c0.02-0.76,0.23-1.8-0.16-2.21c-0.98-1.04-0.38-2.19-0.61-3.25 c-0.22-1.06-0.64-2.09-0.72-3.16c-0.06-0.82,0.27-1.67,0.43-2.5c0.09-0.47,0.38-1,0.26-1.41c-0.41-1.47-1.54-3.02-1.29-4.33 c0.3-1.6-0.09-3.11-0.39-4.4c-0.4-1.71-0.54-3.62-1.43-5.16c-1.05-1.8-0.55-3.66-0.75-5.5c-0.03-0.32-0.48-0.6-0.53-0.93 c-0.61-3.74-2.38-7.28-1.79-11.25c0.46-3.06-1.24-5.38-3.1-7.64c0-1.23,0-2.5,0-3.65c-0.29-0.4-0.57-0.68-0.72-1.01 c-1.3-2.8-2.53-5.64-3.89-8.42c-0.63-1.29-1.97-2.4-2.16-3.71c-0.48-3.34-2.85-5.4-4.8-7.66c-1.95-2.26-4.79-3.8-6.61-6.14 c-1.55-1.99-3.63-3.24-5.27-5.04c-0.55-0.6-1.34-1.13-2.12-1.34c-1.34-0.37-2.56-0.77-3.47-1.93c-0.34-0.43-1.1-0.48-1.55-0.86 c-2.01-1.69-4.73-1.59-6.93-2.88c-2.62-1.54-5.75-1.64-8.67-2.32c-0.76-0.18-1.68,0.2-2.49,0.44c-1.09,0.31-2.02,0.19-3.17-0.13 c-1.97-0.55-3.96-1.16-6.11-1.19c-3.27-0.05-6.29,0.77-9.41,1.54c-4.33,1.06-8.49,2.43-12.81,4.68c-2.26-0.38-4.85,0.47-6.83,1.92 c-3.34,2.45-6.62,4.89-10.41,6.63c-1.2,0.55-2.35,1.37-3.27,2.31c-2.54,2.57-5.74,4.14-8.66,6.16c-0.9,0.62-2.09,1.19-2.48,2.07 c-0.77,1.74-2.14,2.94-3.52,3.86c-1.04,0.7-2.12,1.38-2.84,2.33c-1.56,2.08-3.28,3.93-5.43,5.41c-0.59,0.4-1.08,1.07-1.39,1.72 c-0.61,1.29-0.92,2.73-1.61,3.96c-0.77,1.38-1.84,2.58-2.74,3.89c-0.26,0.38-0.38,0.87-0.56,1.31c-0.24,0.05-0.55,0.01-0.7,0.15 c-1.22,1.11-2.5,2.18-3.6,3.41c-1.7,1.9-1.82,4.77-3.91,6.5c-0.48,0.4-0.55,1.29-0.8,1.96c-0.04,0.11,0.03,0.27-0.01,0.38 c-0.87,2.55-1.79,5.04-4.01,6.85c-1.37,1.11-2.14,2.58-2.24,4.49c-0.05,0.98-0.73,2.04-1.37,2.87c-0.84,1.09-1.36,2.23-1.69,3.57 c-0.36,1.49-0.71,3.16-1.61,4.32c-2.47,3.18-4.21,6.71-5.65,10.42c-0.8,2.05-1.82,3.91-3.25,5.62c-1.4,1.68-0.86,4.2-2.2,6.03 c-0.55,0.75-0.81,1.72-1.14,2.61c-0.62,1.69-1.01,3.41-2.27,4.87c-1.14,1.34-1.83,3.07-2.82,4.81c-2.23,0-4.66,0.08-7.08-0.03 c-1.19-0.06-2.51-0.96-3.51-0.64c-2.35,0.75-4.68,0.62-7.04,0.71c-0.29,0.01-0.56,0.47-0.63,0.54c-0.85-0.22-1.52-0.48-2.21-0.55 c-2.34-0.24-4.65,0.11-7.06-0.63c-1.71-0.53-3.84-0.46-5.87,0.49c-1.25,0.58-2.94,1.72-4.79,0.24c-0.72-0.58-2.63-0.33-3.62,0.22 c-1.41,0.78-3,0.76-4.03,0.33c-3-1.28-6.01-0.36-9-0.61c-0.64-0.05-1.33,0.47-1.19,0.42c-1.94-0.14-3.11-0.3-4.27-0.28 c-0.56,0.01-1.11,0.55-1.68,0.56c-3.83,0.05-7.67,0.03-11.72,0.03c-0.78-2.1-1.73-4.06-2.2-6.13c-0.28-1.24-0.83-2.24-1.4-3.29 c-0.29-0.53-0.96-1.03-0.94-1.52c0.1-2.57-1.52-4.1-2.82-5.35c-0.95-3.2-2.23-5.76-4.06-8.06c-0.11-1.07,0.03-2.3-0.41-3.28 c-1.02-2.29-2.27-4.48-3.54-6.64c-0.25-0.43-1.02-0.56-1.55-0.83c-1.38-4.28-3.51-8.07-6.9-10.71c-0.53-5.25-4.6-7.98-7.03-12.01 c0.68-1.9-0.68-3.76-1.75-5.11c-2.08-2.64-3.22-6.18-6.46-7.58c-1.11-2.13-1.86-4.38-3.26-6.1c-2.79-3.43-5.96-6.55-8.93-9.84 c-0.99-1.1-1.92-2.26-2.72-3.5c-1.29-2.01-2.3-4.18-4.6-5.38c-1.6-0.83-3.07-1.93-4.56-2.98c-1.53-1.08-2.38-2.88-4.28-3.66 c-1.65-0.68-3.05-2.65-4.6-2.7c-2.3-0.08-2.79-2.51-4.76-2.67c-0.55-0.05-1.06-0.52-1.62-0.73c-1.56-0.58-3.23-0.95-4.68-1.72 c-2.17-1.15-4.55-1.54-6.85-2.07c-2.52-0.58-5.18-0.57-7.77-0.87c-0.45-0.05-0.86-0.41-1.3-0.56c-4.66-1.59-9.46-0.9-14.21-0.79 c-0.39,0.01-0.78,0.5-0.94,0.61c-1.79-0.97-3.21-0.96-4.86-0.33c-1.56,0.6-3.28,0.97-4.95,1.05c-3.1,0.13-5.98,0.83-8.7,2.35 c-3.02,1.68-6.1,3.27-9.19,4.84c-2.1,1.07-3.91,2.47-5.68,4.05c-3.6,3.21-6.22,7.18-9.17,10.9c0.35,1.47-1.27,0.83-1.67,1.56 c-0.47,0.85-1.08,1.61-1.62,2.42c-1.87,2.79-3.91,5.44-4.98,8.75c-0.8,2.48-1.31,5.09-2.66,7.38c-0.81,1.37-1.23,2.85-1.45,4.42 c-0.08,0.56-0.55,1.06-0.72,1.62c-1.06,3.42-2.15,6.84-3.08,10.3c-0.44,1.65-1.15,3.28-0.84,5.08c0.07,0.41-0.31,0.88-0.46,1.33 c-1.03,3.27-2.35,6.49-1.84,10.05c0.09,0.61,0.14,1.34-0.1,1.88c-1.03,2.28-1.45,4.86-1.27,7.12c0.32,4.04-1.97,7.65-1.31,11.67 c0.21,1.29-0.2,2.7-0.41,4.05c-0.2,1.32-0.67,2.61-0.73,3.93c-0.33,7.48,0.65,15.01-0.79,22.45c-0.25,1.3-0.42,2.62-0.65,4.08 c0.12,0.13,0.38,0.4,0.63,0.68c-1.41,1.29-1.5,2.97-1.57,4.76c-0.13,3.37-0.47,6.74-0.75,10.1c-0.03,0.34-0.28,0.65-0.4,0.99 c-1.19,3.37-2.17,6.76-1.92,10.41c0.11,1.54,0.12,3.1-0.01,4.63c-0.13,1.58-0.29,3.21-0.81,4.68c-0.39,1.1-0.27,2.23-0.6,3.34 c-0.43,1.41,0,3.06-0.13,4.6c-0.11,1.32-0.62,2.61-0.71,3.93c-0.13,1.92,0.53,4.11-0.18,5.72c-0.82,1.85-0.84,3.91-1.64,5.48 c-0.85,1.66,0.02,2.52,0.2,3.45c-0.83,1.44-2.22,2.74-2.14,3.94c0.21,3.33-1.26,6.42-0.91,9.47c-0.55,0.92-1.17,1.59-1.39,2.38 c-0.42,1.52,0.16,3.21-0.88,4.67c-0.24,0.34-0.06,1.01-0.03,1.52c0.02,0.36,0.07,0.74,0.22,1.06c0.14,0.32,0.42,0.58,0.69,0.93 c-0.26,0.36-0.6,0.62-0.66,0.94c-0.38,2.04-0.73,4.09-1.02,6.14c-0.12,0.88,0.22,1.93-0.15,2.64c-0.81,1.54-0.96,3.23-1.35,4.84 c-0.37,1.54-1.04,2.94-1.48,4.4c-0.5,1.65-0.12,3.56-0.12,5.36c0,0.13,0.06,0.31-0.01,0.38c-1.76,1.95,0.29,4.77-1.54,6.7 c0,2.44,0.01,4.89,0,7.33c0,0.63,0.17,1.4-0.12,1.87c-1.28,2.11-1.11,4.46-1.55,6.73c-0.47,2.37-0.53,4.68-0.66,7.04 c-0.16,2.73-0.49,5.45-0.76,8.17c-0.02,0.23-0.22,0.43-0.25,0.66c-0.3,2.15-2.16,4.08-0.6,6.54c0.5,0.79,0.39,2.47-0.13,3.31 c-1.08,1.74-0.48,3.49-0.48,5.19c0,1.82-0.52,3.66,0.55,5.55c0.65,1.16,0.41,2.94-0.62,4.24c1.47,2.06,0.6,4.41,0.74,6.63 c0.14,2.3,0.03,4.62,0.03,6.93c1.02,1.8,1.69,3.7,2.31,5.62c0.8,2.5,0.63,5.36,2.9,7.31c0.5,0.43,0.74,1.23,0.95,1.9 c0.56,1.83,1.02,3.69,1.57,5.53c0.48,1.6,0.67,3.44,1.62,4.7c1.26,1.67,2.16,3.5,3.25,5.24c1.47,2.35,3.35,4.55,4.27,7.1 c0.95,2.64,2.24,4.81,4.17,6.79c1.37,1.41,3.07,2.92,3.52,4.68c0.62,2.39,2.1,3.85,3.59,5.49c0.99,1.1,2.04,2.22,2.7,3.51 c1.79,3.49,4.15,6.32,7.73,8.13c1.19,0.6,2.54,1.58,3.02,2.72c0.85,2.03,2.51,3.26,4.02,4.44c1.38,1.07,2.92,2.03,3.91,3.42 c1.08,1.51,3,2.18,3.77,3.76c0.87,1.8,2.41,2.8,3.89,3.66c2.37,1.39,4.21,3.32,5.81,5.35c1.02,1.29,2.22,2.13,3.49,2.77 c1.72,0.87,3.07,2.04,4.4,3.36c1.26,1.26,2.4,2.8,3.93,3.57c2.9,1.47,5.33,3.64,8.31,5.05c1.89,0.89,3.85,1.94,5.66,3.13 c4.52,2.97,9.14,5.73,13.95,8.23c2.05,1.06,4.4,1.01,6.31,2.59c1.69,1.41,3.97,2.13,6.03,3.07c1.08,0.49,2.23,1.04,3.38,1.11 c1.89,0.11,3.41,1.37,5.15,1.52c2,0.18,3.52,0.91,4.89,2.27c0.2,0.2,0.73,0.04,1.09,0.13c3.12,0.8,6.27,1.75,9.06,3.26 c3.67,1.99,7.39,3.13,11.48,2.91c0.6,0.54,1.11,1.15,1.75,1.52c1.45,0.83,3.01,2.23,4.44,2.14c2.06-0.14,3.21,1.19,4.74,1.8 c4.08,1.65,8.53,1.58,12.64,3.02c2.95,1.04,6.12,1.21,9.09,2.28c1.47,0.53,3.36,0.16,4.62,0.92c1.45,0.89,3.08,0.36,4.54,1.28 c0.86,0.55,2.72,0.74,3.71-0.46c3.69,2.34,8.25,0.96,11.98,2.89c0.51,0.26,1.28,0.12,1.91,0c0.32-0.06,0.58-0.46,0.87-0.71 c0.17,0.16,0.33,0.45,0.53,0.48c4,0.6,7.84,2.12,12,1.84c1.57-0.1,3.27-0.49,4.72,0.71c0.23,0.19,0.9,0.19,1.11,0 c1.56-1.4,3.41-0.65,5.11-0.71c3.34-0.12,6.73,0.26,10.02-0.14c2.08-0.25,4.28-1.19,6.21-0.54c1.76,0.59,3.41,0.56,5.13,0.64 c4.12,0.19,8.09-0.77,12.12-1.41c3.04-0.48,6.13-1.41,9.31-0.93c0.6,0.09,1.35,0.1,1.84-0.18c2.49-1.44,5.38-1.32,8.04-1.97 C368.87,499.78,372.59,499.91,376.26,499.62z"
    ></path>
    <path
      fill="#231F20"
      d="M548.66,334.51c-0.99-2.68-2.13-5.64-0.46-8.86c0.16-0.3,0.2-0.86,0.03-1.11c-1.23-1.85-0.22-4.03-0.83-5.84 c-0.88-2.62-0.57-5.21-0.68-7.82c-0.02-0.51,0-1.01,0-1.46c-1.32-1.26-1.53-2.79-1.57-4.46c-0.07-2.61,0.52-5.27-0.68-7.82 c-0.22-0.46,0.4-1.32,0.66-2.05c-0.59-2.28-2.56-4.47-0.89-7.13c-1.34-2.17,0.3-5.24-1.71-6.73c-0.74-3.77-1.19-7.19-2.12-10.46 c-0.6-2.11-1.06-4.22-1.36-6.36c-0.23-1.64,0.05-3.35-0.08-5.01c-0.12-1.58-0.48-3.13-0.74-4.7c-0.06-0.36-0.02-0.81-0.23-1.06 c-1.73-2.16-1.56-4.99-2.57-7.43c-0.72-1.74-0.14-4.02-0.14-5.7c-0.91-1.72-1.63-3.1-2.47-4.68c0-1.41,0.1-3.09-0.02-4.75 c-0.17-2.21-0.3-4.47-0.9-6.58c-0.22-0.79-0.94-1.64-0.49-2.37c1.07-1.76,0.62-4.05,2.38-5.61c3.18-2.84,8.95-5.37,14.52-2.89 c4.12,1.83,6.08,4.89,6.92,9.03c0.21,1.06,0.64,2.09,0.73,3.16c0.08,1.01,0.34,1.87,0.72,2.8c0.3,0.76,0.68,2.09-0.62,2.68 c0.44,0.79,1.14,1.49,1.18,2.22c0.12,2.72,1.33,5.14,1.86,7.74c0.44,2.12,0.54,4.31,1.44,6.35c0.44,0.99,0.01,2.76-0.76,4.45 c1.59,0.93,0.75,2.79,1.45,4.28c0.68,1.46,2.13,3.61,0.18,5.45c0.33,1.54,0.43,3.17,1.04,4.59c0.86,1.99,0.12,4.5,2.05,6.1 c-0.15,2.26,1.13,4.3,0.86,6.64c-0.12,1.05,0.76,2.21,1.47,4.02c0.25,3.08-0.68,7.04,0.97,11c2.16,1.08,4.28-0.72,6.55-0.77 c0.57-0.01,1.16-0.57,1.69-0.51c3.69,0.46,7.23-0.85,10.88-0.82c0.47,0,1.01-0.07,1.41-0.3c2.27-1.26,4.73-1.19,7.21-1.27 c3.37-0.11,6.74-0.48,10.1-0.74c1.65-0.13,3.38-0.06,4.45,1.3c0.9,1.14,3,0.81,3.12,2.89c0.05,0.86,1.17,1.38,1.58,2.41 c0.91,2.25,0.65,4.25-0.11,6.35c-1.03,2.87-4.1,5.92-7.02,6.28c-3.04,0.38-5.85,1.62-9,1.73c-2.7,0.09-5.35,1.27-8.04,1.92 c-1.68,0.4-3.39,0.74-4.8-0.32c-1.32,0.48-2.57,1.35-3.77,1.3c-4.16-0.2-7.92,1.81-11.79,1.7c0.15,1.3,0.25,2.47,0.42,3.63 c0.15,1.07,0.36,2.13,0.5,3c-0.18,1.33-0.9,2.92-0.39,3.61c0.92,1.25,0.46,2.43,0.65,3.63c0.22,1.44-0.39,2.96,0.7,4.37 c0.37,0.48-0.14,1.65-0.29,2.49c-0.16,0.94-0.36,1.88-0.58,3.03c2.46,0.58,4.67,1.14,6.9,1.61c1.55,0.33,3.12,0.61,4.7,0.76 c1.47,0.14,2.9,0,4.34,0.74c1.36,0.7,2.94,1.21,4.45,1.3c3.45,0.19,6.56,2.09,9.81,1.86c1.29,0.57,2.38,1.06,3.47,1.53 c3.96,1.71,5.29,5.29,5.77,9.05c0.36,2.76-1.4,5.22-3.35,7c-2.03,1.85-4.79,2.64-7.5,3.23c-0.61,0.13-1.31,0.14-1.92,0 c-3.39-0.81-6.78-1.61-10.14-2.55c-3.65-1.02-7.19-2.52-11.11-2.06c-1.66,0.19-3.03-0.75-4.51-1.23c-1.44-0.47-2.66-0.57-3.85,0.9 c0.37,2.6-0.88,4.96-1.99,7.41c-1.52,3.35-2.79,6.82-4.17,10.24c-0.36,0.88-0.53,1.89-1.08,2.63c-2.61,3.5-3.57,7.82-5.83,11.5 c-1.57,2.57-2.73,5.39-4.78,7.67c-0.31,0.34-0.62,0.83-0.64,1.26c-0.08,1.79-1.07,3.16-2.41,3.98c-1.73,1.06-1.32,3.09-2.61,4.41 c-1.9,1.94-3.06,4.54-5.45,6.17c-1.06,0.72-1.65,2.12-2.52,3.15c-0.28,0.34-0.78,0.5-1.5,0.94c-1.84,2.91-3.33,6.64-7.11,8.51 c-0.55,0.27-0.91,0.89-1.38,1.34c-6.26,6.01-12.51,12.02-18.8,18c-0.79,0.75-1.78,1.79-2.68,1.79c-1.57-0.01-2.2,1.02-3.19,1.75 c-0.94,0.69-0.92,2.07-2.35,2.56c-0.95,0.32-1.4,1.92-2.29,2.72c-0.78,0.7-1.93,0.97-2.78,1.61c-1.01,0.76-1.72,2.07-2.82,2.54 c-3.25,1.38-5.1,4.44-7.86,6.24c-4.01,2.61-7.66,5.87-12.33,7.46c-1.22,0.41-2.19,1.5-3.34,2.19c-1.85,1.1-3.71,2.21-5.65,3.14 c-1.74,0.84-3.62,1.38-5,2.86c-0.3,0.32-0.84,0.48-1.3,0.55c-2.93,0.47-5.16,2.46-7.78,3.59c-1.66,0.71-3.3,1.29-4.77,2.59 c-1.32,1.17-3.48,1.4-5.29,2c-0.35,0.12-0.97-0.14-1.12,0.04c-1.49,1.93-3.72,2.25-5.85,2.69c-3.77,0.78-7.34,2.1-10.94,3.42 c-1.71,0.62-3.59,0.75-6.23,1.27c-2.01,1.17-4.32,1.85-7.25,1.88c-1.3,2.58-4.18,2.23-6.38,2.92c-1.9,0.59-4.1,0.81-6.18,1.08 c-3.4,0.44-6.99,0.58-10.12,2.51c-1.08,0.67-2.46,0.98-3.75,1.15c-1.39,0.19-2.83,0.08-4.24,0.03c-1.26-0.04-2.19,0.92-3.54,0.84 c-4.09-0.25-7.99,0.82-11.84,2.1c-0.46,0.15-0.98,0.16-1.48,0.15c-3.61-0.07-7.07,0.71-10.58,1.45c-2.46,0.52-5.13,0.04-7.7,0.13 c-1.2,0.04-2.5-0.5-3.61,0.68c-0.3,0.32-1.35,0.22-2.06-0.43c-0.9-0.81-1.85-0.22-2.5,0.38c-2.2-0.43-4.4-1.45-6.34-1.08 c-2.17,0.41-4.05,0.42-6.61,0.03c-1.87,0.61-4.22,2.19-7.03,0.57c-0.49-0.28-1.25-0.24-1.85-0.15c-3.18,0.51-6.22-0.64-9.32-0.93 c-1.66-0.15-3.16-1.01-4.8,0.1c-0.35,0.24-1.14,0.24-1.5,0c-1.99-1.31-4.18-0.5-6.26-0.74c-1.96-0.23-3.9-0.61-5.86-0.74 c-2.05-0.13-4.22,0.37-6.14-0.15c-1.73-0.47-3.4-0.53-5.11-0.68c-1.58-0.14-3.22-0.25-4.68-0.8c-3.08-1.15-6.47-0.79-9.51-2.2 c-0.95-0.44-2.29,0-3.44-0.08c-2.55-0.2-4.94-0.99-7.22-2.09c-1.39-0.4-2.82-0.42-4.28-0.83c-1.95-0.54-4-1.38-6.21-0.99 c-0.73,0.13-1.58-0.44-2.37-0.71c-2.92-1.02-6.07-1.67-8.67-3.23c-1.64-0.98-3.65,0.3-4.85-1.4c-2.89,0.27-5.48-1.11-8.65-1.7 c-0.46-0.58-1.17-1.48-1.34-1.7c-1.99-0.57-3.37-0.62-4.25-1.3c-1.58-1.23-3.47-1.63-5.17-2.48c-0.32-0.16-0.6-0.46-0.94-0.53 c-5.24-1.02-6.79-1.68-10.95-4.35c-0.88-0.56-2-0.76-3.03-1.06c-1.61-0.47-3.25-0.69-4.64-1.92c-1.04-0.91-2.46-1.51-3.81-1.91 c-2.46-0.72-4.62-1.93-6.75-3.3c-1.6-1.03-3.2-2.06-5.28-2.23c-1.09-0.09-2.24-0.89-3.14-1.65c-4.21-3.56-9.53-5.55-13.44-9.53 c-2.31-0.77-3.9-2.51-5.69-4.04c-1.62-1.39-3.64-2.32-5.68-3.57c-0.74-2.45-2.47-4.37-4.99-5.7c-1.28-0.68-2.5-1.53-3.6-2.48 c-2.02-1.74-4-3.52-5.85-5.43c-1.69-1.74-4.15-2.49-5.29-5.06c-0.82-1.83-2.76-3.34-4.77-4.06c-1.08-0.39-2.09-1.04-2.29-1.75 c-0.71-2.62-3.05-3.64-4.67-5.35c-3.49-3.68-6.96-7.39-10.36-11.16c-0.78-0.87-1.23-2.03-1.95-3.26c-2.31-0.38-2.61-3.11-4.25-4.52 c0.5-1.56-0.9-2.23-1.56-3.21c-2.15-3.2-3.3-7.04-6.14-9.81c-0.06-1.62-1.38-2.71-1.67-4.35c-0.5-2.71-2.08-5.09-3.79-7.28 c-3.01-3.86-4.43-8.28-4.68-13.18c-2.22-2.41-2.71-5.52-3.2-8.85c-1.06-0.42-2.17-0.85-3.38-1.32c-0.23,0.14-0.62,0.55-1.03,0.58 c-1.41,0.08-2.83,0.02-4.24,0.04c-1.23,0.01-2.28,0.7-3.53,0.87c-2.35,0.31-4.63,1.19-6.93,1.84c-0.34,0.1-0.7,0.4-1,0.35 c-2.71-0.48-5.14,0.76-7.43,1.67c-4.51,1.8-8.13-0.1-11.65-2.19c-1.72-1.02-2.49-3.11-3.2-5.18c-0.7-2.03-1.09-3.71,0.09-5.6 c0.23-0.36,0.03-0.99,0.03-1.43c0.62-0.62,1.2-1.13,1.7-1.71c1.64-1.94,3.66-3.25,6.14-3.82c4.09-0.94,8.31-1.4,12.12-3.35 c3.43,0.54,6.42-1.63,9.78-1.57c0.43,0.01,0.86-0.46,1.31-0.51c0.78-0.08,1.58,0,2.36,0.37c1.97-0.7,3.95-1.41,5.95-2.12 c0-2.19-0.07-4.11,0.02-6.02c0.08-1.84-0.31-3.67,0.66-5.52c0.53-1.01,0.56-2.8,0.01-3.76c-1.61-2.76,0.18-4.86,0.97-7.57 c-0.41-0.2-0.99-0.48-1.58-0.76c-1.38-0.67-3.18,0.18-4.86-0.85c-1.5-0.92-3.43,0.37-5.04-0.95c-0.61-0.51-1.99-0.06-3.02-0.09 c-1.98-0.05-3.9,0.01-5.89-0.67c-2.06-0.7-4.31-0.95-6.6-0.96c-1.86-0.01-3.72-0.82-5.82-1.34c-0.79,0.35-1.64,1.15-3.06,0.15 c-1.63-1.14-3.58-1.99-5.51-2.46c-2.26-0.55-2.62-2.61-3.34-4.03c-0.62-1.23-1.77-2.91-0.46-4.83c0.67-0.99,0.3-2.69,0.41-4.12 c1.9-1.63,3.44-3.55,6.3-4.3c2.43-0.64,4.95-1,7-0.38c2.06,0.61,3.97,0.25,5.92,0.57c0.94-1.27,1.89,0.03,2.83,0.03 c1.95,0,3.72,1.41,5.72,1c2.03-0.41,3.89,1.31,5.45,0.89c1.72-0.47,2.85,0.63,4.35,0.48c1.53-0.15,3.12,0.53,4.69,0.65 c1.66,0.13,3.34,0.03,5.28,0.03c0.1-0.65-0.02-1.5,0.35-2c1.03-1.41,0.69-2.76,0.24-4.22c-0.25-0.81-0.65-1.93-0.31-2.51 c1.39-2.32,1.18-5.15,2.57-7.44c0.18-0.3,0.43-0.65,0.43-0.97c-0.03-2.98,0.75-5.8,1.55-8.63c0.13-0.48,0.02-1.02,0.02-1.54 c0-1.29-0.16-2.6,0.05-3.85c0.18-1.02,1.03-1.93,1.19-2.96c0.29-1.86,0.3-3.77,0.42-5.61c0.5-0.96,1-1.91,1.46-2.79 c-0.93-3-0.82-3.81,0.7-7.27c0.54-1.23,1-2.48,0.83-3.91c-0.3-2.62,0.43-5.09,1.33-7.54c0.29-0.79,0.23-1.75,0.17-2.62 c-0.13-2.28,0.61-4.29,1.52-6.33c0.62-1.4,1.31-2.77,1.76-4.3c0.82-2.81,3.37-4.32,6.04-5.47c4.72-2.02,9.79-1.02,12.61,2.71 c0.78,1.03,1.23,2.32,2.02,3.85c0,1.63,0.06,3.68-0.02,5.72c-0.04,1.08,0.44,2.26-0.66,3.23c-0.32,0.28-0.32,1.37-0.04,1.83 c0.85,1.41,0.57,2.56,0.03,4.05c-1.15,3.16-0.66,6.74-2.33,9.86c-0.43,0.8,0.03,2.04-0.1,3.05c-0.1,0.81-0.46,1.6-0.75,2.38 c-0.17,0.44-0.45,0.84-0.51,0.96c1.54,3.59-1.35,6.09-1.58,9.62c-0.08-0.11,0.2,0.28,0.41,0.58c-0.56,2.89-1.11,5.75-1.72,8.88 c-1.08,1.11-1.4,2.77-1.22,4.56c0.45,4.43-0.81,8.47-2.59,12.44c-0.39,0.86-0.46,1.91-0.48,2.88c-0.08,3.09,0.36,6.24-1.44,9.07 c-0.24,0.37-0.07,0.99-0.13,1.48c-0.16,1.33,1.99,2.66,0.01,4c-0.02,1.48,0.04,2.92-0.71,4.34c-0.37,0.7-0.08,1.77-0.06,2.67 c0.05,2.86,0.15,5.69-1.35,8.33c-0.39,0.68-0.11,1.74-0.2,2.61c-0.21,2.09,0.55,4.25-0.73,6.27c-0.6,0.94,0.93,1.95,0.08,3.27 c-0.42,0.64-0.6,2.17,0.39,3.21c0.34,0.36-0.02,1.35,0.31,1.76c0.87,1.11-1.37,1.76-0.22,2.97c0.8,0.85-0.17,1.81-0.58,2.67 c-0.1,0.21-0.05,0.52-0.01,0.76c0.79,4.36,0.57,8.85,1.8,13.15c0.34,1.17,0.49,2.4,0.86,4.29c1.69,3.41,3.74,7.44,5.67,11.54 c0.5,1.07-0.21,2.53,0.92,3.48c-0.1,3.48,2.3,5.79,4.07,8.34c0.91,1.32,1.74,2.51,2.19,4.13c0.7,2.5,2.8,4.25,4.33,6.29 c0.69,0.92,1.62,1.65,2.3,2.34c0.4,1.43,0.76,2.71,1.23,4.35c2.33,2.36,6.52,3.72,6.8,8.24c0.61,0.38,1.35,0.64,1.82,1.15 c2.39,2.6,5.26,4.73,7.19,7.81c0.74,1.18,2.25,1.88,3.44,2.77c0.78,0.58,1.85,0.93,2.36,1.67c1.91,2.82,4.36,5.02,7.06,7.07 c1.83,1.39,3.33,3.21,4.94,4.87c1.56,1.61,3.37,2.81,5.36,3.85c1.07,0.56,2.12,1.3,2.94,2.18c1.71,1.85,3.88,3.01,5.95,4.33 c1.93,1.23,3.92,2.35,5.84,3.58c0.39,0.25,0.58,0.79,0.9,1.15c0.72,0.82,1.32,2.01,2.22,2.33c2.14,0.75,3.46,2.38,4.76,3.59 c1.4,0.51,2.64,0.72,3.61,1.36c2.52,1.64,5.41,2.49,7.93,4.27c2.66,1.87,6.06,2.68,9.11,4c1.42,0.62,2.97,1.14,4.12,2.12 c1.66,1.42,3.64,2.08,5.57,2.39c2.04,0.32,3.61,1.3,5.29,2.21c0.43,0.24,0.74,0.92,1.14,0.94c2.04,0.15,3.36,1.84,5.23,2.32 c1.19,0.3,2.38-0.04,3.67,0.44c2.22,0.82,4.34,2.08,6.78,2.3c0.1,0.01,0.19,0.26,0.27,0.25c3.75-0.41,6.64,2.01,9.96,2.98 c1.61,0.47,3.39,0.41,4.89,1.85c3.15-0.83,6.07,0.89,9.14,1.6c0.75,0.17,1.99,0.34,2.31,0.75c0.95,1.24,1.45-0.28,2.16-0.1 c1.75,0.44,3.56,0.71,5.28,1.24c3.28,1.01,6.52,1.95,10.03,1.94c2-0.01,4,0.76,5.89,1.15c1.31-0.1,2.72-0.58,3.86-0.22 c2.61,0.83,5.19,1.46,7.95,1.32c1.67-0.08,3.62-0.56,4.95,0.12c1.63,0.84,2.67-0.45,4.08-0.29c1.64,0.19,3.42,1.2,5.13,0.15 c1.21,1.7,3.57-0.2,4.77,1.54c3.02-0.16,5.89,1.36,8.94,0.76c0.81-0.16,1.58-0.55,2.39-0.75c2.98-0.72,5.78-0.12,8.74,0.58 c2.67,0.64,5.62,0.16,8.44,0.18c1.09-1.35,2.6-0.63,3.93-0.76c1.96-0.19,4,0.44,5.87-0.76c1.04-0.67,2.07,0.37,3.28,0.24 c2.58-0.27,5.03-1.35,7.72-1.1c1.4,0.13,2.86-0.56,4.31-0.67c1.66-0.13,3.74,0.58,4.91-0.19c1.37-0.89,2.99,0.01,4.2-1.29 c0.43-0.46,2.03,0.17,3.88,0.41c-0.04,0.01,0.76-0.24,1.55-0.5c0.68-0.22,1.54-0.27,2-0.73c1.79-1.79,4.28-2.02,6.39-2.2 c3.22-0.29,6.15-1.55,9.3-1.99c0.74-0.1,1.65-0.56,2.46-0.45c2.61,0.34,4.79-0.71,6.96-1.88c2.15-1.16,4.35-1.98,6.88-2.1 c1.48-0.07,2.91-0.99,4.38-1.45c2.96-0.93,5.96-1.77,8.91-2.73c4.31-1.41,8.39-3.36,12.43-5.41c1.68-0.85,3.36-1.67,5.35-2.06 c2.12-0.42,4.2-1.82,5.95-3.22c3.56-2.84,7.6-4.53,11.85-5.94c1.11-0.37,2.09-1.21,3.05-1.94c2.45-1.87,4.71-4.05,7.32-5.66 c4.16-2.57,7.91-5.56,11.29-9.07c1.16-1.21,2.58-1.8,4.32-1.91c0.75-2.9,2.66-5,5.39-6c1.74-0.64,2.95-1.72,4.21-2.91 c1.45-1.37,2.63-3.06,4.58-3.84c0.22-0.09,0.39-0.33,0.55-0.54c0.74-0.98,1.36-2.07,2.22-2.92c0.86-0.86,2.07-1.36,2.9-2.24 c1.81-1.91,3.48-3.95,5.22-5.93c0.42-0.48,0.82-1.13,1.37-1.33c3.84-1.42,5.62-4.88,7.75-7.9c1.32-1.87,2.92-3.43,4.41-5.11 c3.08-3.47,5.86-7.05,7.27-11.66c0.82-2.68,2.78-5.01,4.2-7.51c0.71-1.25,1.3-2.55,2.12-3.77c1.11-1.65,1.64-3.68,2.55-5.49 c0.91-1.81,1.88-3.57,2.66-5.46c1.65-4.02,2.38-8.28,3.6-12.4c-1.38-2.47,0.77-4.46,1.17-6.64c0.39-2.13,0.52-4.2,0.54-6.3 C547.48,339.72,548.4,337.45,548.66,334.51z"
    ></path>
    <path
      fill="#231F20"
      d="M241.9,158.85c0.19-0.36,0.63-0.8,0.61-1.2c-0.16-2.4,1.2-3.99,2.81-5.41c2.42-2.12,5.34-3.33,8.47-3.71 c1.36-0.17,2.85-0.21,3.86-0.93c1.65-1.18,3.55-0.47,5.31-1.22c1.6-0.68,3.72-0.14,6.03-0.14c-1.12-3.02-1.32-5.81-3.69-8.06 c-1.43-1.36-1.68-3.89-2.71-5.75c-2.77-5.03-5-10.35-8.29-15.1c-1.02-1.47-1.38-3.27-2.3-4.86c-1.08-1.85-2.33-3.43-3.69-5.02 c-0.77-0.9-1.52-1.96-1.85-3.08c-0.71-2.41-1.78-4.5-3.62-6.24c-0.69-0.65-1.25-1.52-1.64-2.4c-1.88-4.28-5.07-9.42-7.65-12.28 c-0.56-0.62-0.91-1.42-1.38-2.12c-0.62-0.91-1.17-1.88-1.93-2.67c-1.8-1.88-3.3-3.97-4.72-6.15c-0.69-1.05-1.76-1.84-2.62-2.79 c-0.56-0.62-1.05-1.32-1.86-2.36c-1.1-0.52-2.59-1.07-3.63-2.93c-1.39-2.48-4.18-3.86-6.5-5.53c-3.13-2.26-6.81-3.69-9.75-6.26 c-0.35-0.31-0.8-0.55-1.25-0.69c-2.3-0.72-4.65-1.23-6.46-3.08c-1.25-1.27-3.19-0.84-4.79-1.44c-2.11-0.79-4.11-2.07-6.33-2.38 c-2.27-0.31-4.63,0.01-6.94-0.1c-1.19-0.06-2.35-0.59-3.54-0.71c-1.27-0.13-2.58-0.13-3.85,0c-1.19,0.12-2.35,0.59-3.55,0.71 c-1.27,0.13-2.57,0.03-3.88,0.03c-2.77,1.64-5.8,2.74-8.71,4.06c-4.26,1.93-8.02,4.92-11.12,8.58c0.2,1.62-1.66,1.15-2.16,2.12 c-0.44,0.86-0.98,1.69-1.63,2.41c-1.82,2.01-3.52,4.06-4.04,6.83c-0.04,0.23-0.17,0.46-0.32,0.64c-2.57,3.12-3.98,6.79-5.23,10.58 c-0.44,1.34-1.51,2.45-2.15,3.74c-1.14,2.3-0.63,5.03-1.88,7.32c-1.23,2.25-1.01,4.76-1.33,7.2c-0.28,2.19-0.76,4.6-2.76,6.09 c-0.09,0.29-0.2,0.52-0.22,0.75c-0.27,5.42-0.2,10.89-0.93,16.26c-0.32,2.37-0.01,5.23-2.05,7.09c-0.51,1.62,0.37,3.21-0.78,4.85 c-0.82,1.18-0.05,3-0.72,4.68c-0.89,2.21-0.82,4.87-0.89,7.34c-0.08,2.98-0.52,5.83-1.45,8.67c-0.39,1.19-0.7,2.77,0.51,3.79 c-0.23,0.6-0.6,1.14-0.62,1.7c-0.07,2.44,0.05,4.89-0.06,7.33c-0.06,1.45,0.38,2.91-0.64,4.38c-0.48,0.7-0.12,2.26,0.3,3.23 c0.63,1.44,0.43,2.59-0.55,3.97c2.17,1.97,0.5,4.08-0.19,5.98c-1.29,3.54-3.16,4.84-7.94,6.48c-2.93,1.01-5.4,0.29-7.76-0.53 c-2.95-1.03-5.19-3.48-6.31-6.47c-1.18-3.19-1.15-7.37-0.19-10.57c0.37-1.22,0.33-2.85,0.28-4.34c-0.13-3.6-0.57-7.24,0.5-10.9 c0.66-2.25,0.08-4.85,0.14-7.3c0.03-1.59-0.19-3.16,0.68-4.74c0.68-1.23-0.31-2.84,0.71-4.36c0.73-1.09-0.32-2.98,0.99-4.16 c-0.31-0.62-0.83-1.16-0.8-1.67c0.07-0.94,0.55-1.84,0.69-2.78c0.15-1-0.29-2.29,0.2-2.99c1.16-1.64-0.08-3.78,1.36-5.25 c0.26-0.27,0.48-0.57,0.51-0.6c0.38-2.47,0.84-4.66,1.01-6.86c0.17-2.17,0.04-4.37,0.04-6.56c0-0.26-0.08-0.56,0.03-0.76 c2.4-4.31,1.67-9.48,3.77-13.88c0.25-0.52,0.05-1.26,0.06-1.9c0-0.77-0.24-1.65,0.04-2.3c1.09-2.48,0.92-5.22,1.81-7.74 c0.4-1.14,0.45-2.4,0.54-2.93c0.95-3.02,2.6-4.95,3.19-7.52c0.31-1.34,1.06-2.86,2.07-4.16c1.44-1.87,2.38-4.13,3.51-6.24 c1.33-2.46,2.79-4.79,4.5-7.06c1.8-2.39,3.6-4.88,5.17-7.46c1.81-2.99,3.69-5.84,6.93-7.5c0.44-0.22,0.89-0.64,1.08-1.08 c1.24-2.99,4.11-3.93,6.52-5.55c3.21-2.16,7.25-2.98,9.83-6.12c3.27-1.14,6.32-2.94,9.91-3.12c1.06-0.05,2.1-0.49,3.16-0.74 c1.18-0.27,2.35-0.61,3.54-0.75c1.14-0.13,2.45,0.31,3.44-0.09c2.58-1.03,5.21-0.74,7.81-0.67c3.63,0.1,7.22,0.73,10.87,0.87 c3.05,0.11,6.06,1.41,9.08,2.18c0.8,1.45,2.32,0.46,3.45,1c1.07,0.51,2.37,0.52,4.1,0.86c2.19,1.36,4.81,3.09,7.53,4.62 c1.12,0.63,2.46,1.12,3.73,1.18c2.48,0.11,4.68,1.24,6.14,2.78c2.12,2.24,4.93,3.31,7.2,5.25c1.61,1.37,3.25,2.73,4.76,4.22 c2.57,2.52,5.24,4.83,8.54,6.4c1.09,0.52,2.29,1.56,2.68,2.63c0.43,1.21,1.56,1.67,1.98,2.66c0.46,1.08,1.56,1.4,2.12,2.16 c1.95,2.68,4.31,4.94,6.6,7.28c0.15,0.16,0.13,0.5,0.28,0.64c1.06,0.96,0.38,2.66,1.61,3.6c1.01,0.77,1.89,1.75,2.73,2.72 c0.47,0.53,0.85,1.19,1.09,1.85c0.93,2.58,2.81,4.53,4.38,6.68c0.42,0.58,0.77,1.22,1.1,1.86c2.81,5.47,5.82,10.84,9.62,15.67 c1.2,1.52,1.36,3.39,2.44,4.79c1.14,1.47,2.6,2.68,2.5,4.77c2.17,1.5,1.94,4.38,3.65,6.24c0.97,1.06,1.13,2.84,1.77,4.25 c0.64,1.41,1.38,2.78,2.14,4.13c1.05,1.88,2.56,3.62,3.13,5.64c0.5,1.73,1.3,3.06,2.26,4.5c1.52,2.29,2.44,4.95,4.04,7.11 c1.02,0.31,1.92,0.58,3.1,0.93c3.07-1.32,6.65-0.46,10.15-0.6c3.6-0.14,7.23,0.24,10.79-0.15c1.79-0.2,3.44,0.28,5.17,0.15 c1.92-0.15,3.86-0.03,5.79-0.03c1.93,0,3.86,0,5.79,0c1.93,0,3.86-0.06,5.79,0.03c0.68,0.03,1.35,0.43,2.11,0.68 c0.78-0.28,1.67-0.61,2.94-1.07c0.54-1.37,2.13-2.53,2.59-4.66c0.38-1.76,2.34-3.12,3.06-4.88c1.37-3.34,3.08-6.46,4.94-9.54 c1.03-1.72,1.61-3.71,2.51-5.51c1.55-3.09,3.02-6.22,4.64-9.27c0.63-1.19,1.5-2.25,2.39-3.57c-0.23-2.17,1.62-3.79,2.86-5.43 c2.86-3.79,5.27-7.78,7.34-12.04c0.89-1.83,2.01-3.57,3.4-5.2c1.35-1.59,2.76-3.36,3.38-5.51c0.67-2.37,3.05-3.31,4.56-5.54 c0.18-1.42,0.83-3.05,2.24-4.4c1.72-1.64,3.56-3.18,4.69-5.37c0.64-1.25,2.36-1.43,3-2.94c0.56-1.32,1.68-2.42,2.68-3.51 c0.66-0.72,1.48-1.33,2.32-1.83c2.44-1.44,4.71-3.09,6.8-5.01c2.51-2.3,4.81-4.95,7.66-6.71c2.73-1.69,5-3.91,7.72-5.55 c0.91-0.55,1.98-1.25,2.94-1.2c3.32,0.19,5.56-2.19,8.34-3.26c1.65-0.63,3.03-1.97,3.81-2.51c3.66-0.81,6.57-1.24,9.33-2.13 c1.97-0.63,4.05-0.92,5.9-1.6c2.05-0.76,3.96-0.35,5.91-0.61c3.48-0.47,6.95-1.09,10.49-0.76c2.09,0.2,4.16,0.63,6.24,0.73 c2.11,0.1,4.05,0.72,6,1.38c0.34,0.12,0.71,0.16,1.08,0.19c3.47,0.3,5.75,1.05,9.95,3.02c1.72,0.81,2.72,2.45,4.5,3.1 c1.56,0.57,3.02,1.4,4.51,2.16c1.06,0.55,2.1,1.15,3.13,1.76c1.78,1.06,3.71,1.92,4.48,4.15c0.23,0.66,0.91,1.34,1.55,1.64 c3.13,1.43,4.87,4.24,6.71,6.85c2.46,3.48,4.54,7.22,7.36,10.47c1.22,1.41,1.89,3.31,2.78,5c1.11,2.11,1.98,4.39,3.36,6.3 c0.76,1.05,1.16,2.08,1.6,3.22c0.98,2.55,2.18,5.02,3.28,7.5c0.53,2.22,1.09,4.45,1.59,6.69c0.39,1.77,0.95,3.56,1.01,5.35 c0.08,2.49,0.59,4.82,1.41,7.15c0.4,1.13,0.44,2.4,0.58,3.62c0.43,3.89,2.65,7.49,1.91,11.55c-0.56,3.07,1.4,5.88,0.71,8.85 c2.25,1.88,1.06,4.79,2.39,6.86c-0.79,2.23,1.91,4.46-0.04,6.73c0.26,0.51,0.7,1.01,0.78,1.57c0.95,6.05,2.07,12.09,1.57,18.27 c1.06,2.91,0.75,5.94,0.76,8.94c0.01,1.42-0.19,2.82-0.4,4.24c-0.19,1.26,0.93,2.68,1.14,4.07c0.22,1.51-0.01,3.08,0.06,4.62 c0.22,4.75-2.55,7.86-5.79,10.73c-2.77,0.43-5.23,2.35-8.4,1.05c-1.76-0.72-3.56-1.12-5.29-2.2c-3.32-2.08-3.7-5.37-4.42-8.59 c-0.11-0.47,0.42-1.08,0.73-1.8c-0.51-1.15-1.39-2.39-0.4-3.97c0.42-0.67,0.6-1.79,0.34-2.51c-1.36-3.84-0.42-7.78-0.73-11.66 c-0.06-0.82-0.27-1.62-0.43-2.58c0.93-0.62,0.72-2.08,0.35-2.92c-0.65-1.46-0.19-3.11-0.79-4.3c-0.75-1.5-0.54-2.91-0.65-4.37 c-0.12-1.59,0.17-3.15-0.7-4.74c-0.67-1.22,0.62-3.05-0.83-4.28c-0.3-2.84-0.6-5.69-0.9-8.62c-1.1-0.99-1.15-2.45-1.51-3.9 c-0.85-3.37-0.22-6.82-0.81-10.1c-0.59-3.27-0.56-6.49-0.67-9.81c-1.99-1.61-2.86-4.08-2.93-6.38c-0.1-3.03-0.57-5.93-1.78-8.58 c-0.84-1.84-0.15-3.94-1.43-5.6c-0.19-0.24,0.11-0.92-0.09-1.1c-1.42-1.31-2.01-2.95-2.49-4.78c-0.44-1.7-2.01-2.95-2.15-4.91 c-0.05-0.72-0.93-1.4-1.47-2.06c-1.68-2.08-1.9-4.91-3.81-6.94c-1.7-1.82-2.78-4.21-4.98-5.63c-0.25-0.16-0.28-0.62-0.49-0.89 c-2.86-3.88-6.8-6.43-10.89-8.78c-0.91-0.53-2-0.74-3.01-1.11c-2.03-0.76-4.02-1.58-5.58-2.9c-3.49-0.33-6.86-0.53-10.19-1.01 c-2.09-0.3-3.85,0.94-5.86,0.84c-1.92-0.1-3.87-0.15-5.78,0.03c-1.16,0.11-2.32,0.59-3.4,1.07c-1.98,0.88-3.87,1.9-6.13,2.02 c-0.78,0.04-1.68,0.46-2.25,1c-1.31,1.23-2.83,1.73-4.5,2.24c-1.43,0.43-2.86,1.14-4.16,2.08c-2.64,1.92-5.3,3.9-8.21,5.34 c-1.6,0.79-2.53,2.22-4.15,3c-1.43,0.69-2.61,2.19-3.44,3.86c-0.45,0.91-1.93,1.3-3.32,2.16c-0.11,0.18-0.38,0.89-0.87,1.37 c-2.21,2.2-3.74,5.03-5.85,7.16c-2.77,2.8-4.14,6.59-7.21,9.07c-0.52,0.42-0.71,1.24-1.12,1.83c-1.04,1.49-1.77,3.15-2.79,4.66 c-0.74,1.09-2.13,2.04-1.94,3.85c0.08,0.74-0.87,1.72-1.56,2.38c-1.82,1.75-2.92,3.83-3.61,6.24c-0.32,1.12-1.07,2.18-1.85,3.08 c-1.36,1.59-3.18,2.83-3.52,5.11c-1.96,1.11-1.39,3.6-2.74,5.04c-1.36,1.45-1.9,3.32-2.76,5.03c-0.86,1.72-2.41,3.19-2.87,4.97 c-0.5,1.98-2.17,3.15-2.65,5.11c-0.29,1.22-1.28,2.23-1.41,3.67c-0.08,0.85-0.87,1.73-1.52,2.42c-1.32,1.39-2.33,2.82-2.3,4.87 c0.01,0.64-0.55,1.29-0.99,2.26c1.07,0.08,1.9,0.19,2.73,0.18c2.85-0.03,5.59,0.55,8.24,1.56c2.16,0.83,4.49,1.03,6.72,1.41 c2.5,0.43,4.17,1.94,6.02,3.21c1.88,1.3,3.14,3.2,2.84,5.75c-0.03,0.25,0.47,0.55,0.64,0.74c-0.24,0.46-0.68,0.91-0.64,1.31 c0.24,2.78-1.54,4.5-3.41,5.9c-2.13,1.59-4.7,2.49-7.43,2.5c-2.02,0.01-4.26,0.35-6-0.39c-1.79-0.76-3.61,0.21-5.42-0.99 c-1.22-0.81-3.36,0.05-5-0.89c-1.46-0.84-3.35-0.45-4.77-1.52c-0.09-0.06-0.25-0.07-0.36-0.05c-2.81,0.59-5.39-0.94-8.17-0.83 c-2.21,0.09-4.43,0.32-6.68-0.6c-1.02-0.42-2.57-0.36-4.01,0.34c-1.16,0.57-2.88,0.08-4.34-0.07c-2.56-0.27-5.02-2.3-7.68-0.39 c-2.45-0.37-5.03,0.73-7.43-0.72c-0.57-0.34-1.51-0.05-2.29-0.05c-2.44,0-4.89-0.1-7.33,0.03c-2.34,0.12-4.67,0.6-7.02,0.7 c-1.44,0.06-2.84,0.11-4.36-0.62c-1.96-0.94-4.15,0.4-6.09,0.96c-1.53,0.44-3.15,0.78-4.37,0.35c-2-0.7-3.6-0.87-5.63,0.02 c-1.3,0.57-3.05,0.03-4.58,0.12c-5.14,0.28-10.22,0.9-15.08,2.72c-0.33,0.12-0.67,0.33-1.01,0.34c-1.6,0.07-3.14,0.09-4.73,0.7 c-1.3,0.5-2.83,0.18-4.32,0.76c-1.8,0.71-8.36,0.25-10.02-0.75c-2.88-1.73-6.23-3.32-6.18-7.57 C242.51,159.67,242.1,159.24,241.9,158.85z"
    ></path>
    <g>
      <path
        fill="#FFFFFF"
        d="M376.53,371.03c-1.4,2.32-2.61,4.4-3.91,6.42c-0.41,0.63-1,1.22-1.63,1.63c-3.21,2.09-6.18,4.49-9.93,5.84 c-2.38,0.86-5.02,1.5-7.13,3.36c-1.24,1.1-3.25,1.43-4.97,1.84c-1.29,0.31-2.7-0.23-3.94,0.78c-0.8,0.65-1.86-1.23-2.81,0.01 c-3.04-0.45-5.9,0.9-8.93,0.85c-2.07-0.03-4.15,0.52-6.24,0.68c-0.66,0.05-1.36-0.36-2.28-0.62c-2.32,1.31-5.31,1.07-7.83,0.46 c-2.29-0.55-4.47-0.5-6.67-0.53c-3.61-0.04-6.94-0.72-10.37-2c-2.75-1.03-5.72-1.7-8.53-2.71c-2.46-0.88-4.97-1.67-7.23-3.05 c-0.19-0.12-0.6,0-0.7-0.14c-1.95-2.82-5.21-3.47-7.99-4.95c-2.03-1.08-3.71-2.79-5.68-4.01c-4.27-2.66-5.52-6.62-5.11-11.32 c0.08-0.91,0.46-1.96,1.06-2.61c1.25-1.37,2.43-2.84,4.26-3.63c1.09-0.47,2.07-1.32,2.96-2.15c1.71-1.61,3.33-3.32,5.84-3.62 c2.03-2.26,5.05-2.11,7.56-3.18c1.96-0.84,4.05-0.55,5.98-1.4c1.74-0.76,3.66-1.1,5.51-1.58c0.36-0.09,0.93,0.15,1.13-0.04 c2.31-2.2,5.19-1.34,7.87-1.52c2.47-0.16,4.96,0.34,7.43-0.68c1-0.41,2.42,0.16,3.65,0.33c0.35,0.05,0.67,0.34,1.01,0.34 c3.47-0.01,6.79,1,10.18,1.46c3.28,0.45,6.67,0.1,10.02,0.1c0.51,0,1.03,0,1.54,0c-0.03,0.1-0.07,0.2-0.1,0.3 c1.9,0.67,3.76,1.56,5.71,1.97c2.6,0.54,5.08,1.24,7.58,2.19c2.31,0.88,4.67,1.77,7.02,2.63c2.01,0.73,4.06,1.39,6.03,2.2 c3.34,1.37,6.65,2.68,8.66,6.15c0.69,1.2,0.55,2.48,1.11,3.4c0.79,1.32,0.61,2.05,0,3.33 C376.14,368.59,376.53,370.06,376.53,371.03z"
      ></path>
      <path
        fill="#FFFFFF"
        d="M476.08,345.41c-0.63,1.4-1.07,2.37-1.49,3.36c-0.19,0.44-0.24,0.95-0.49,1.34c-1.52,2.33-2.8,4.91-4.69,6.89 c-2.2,2.3-4.91,4.13-7.5,6.03c-0.73,0.54-1.78,0.79-2.7,0.87c-3.87,0.33-7.76,0.77-11.63,0.7c-1.69-0.03-3.55-0.45-5.17-1.41 c-1.01-0.59-2.24-0.79-3.35-1.22c-4.27-1.66-6.7-5.24-9.29-8.73c-2.15-2.91-2.76-6.33-3.81-9.62c-0.86-2.67-1.42-5.37-1.72-8.21 c-0.31-2.86-0.02-5.85-0.77-8.52c-0.64-2.29-0.4-4.46-0.57-6.67c-0.04-0.53,0.43-1.09,0.71-1.73c-0.6-1.47-1.32-3.02-0.36-4.8 c0.33-0.61,0.63-1.77,0.32-2.09c-1.6-1.71,0.02-3.23,0.07-4.82c0.05-1.71,1.39-2.78,2.1-4.15c1.59-3.04,2.82-6.28,4-9.52 c0.29-0.79,0.2-1.68,0.98-2.3c1.78-1.45,2.28-4,4.82-4.98c1.59-0.61,3.19-1.65,4.69-2.75c1.42-1.05,3.4-1.64,5.39-1.82 c2.14-0.19,4.25-0.78,6.95-1.32c-0.04-0.03,0.5,0.6,0.96,0.54c2.53-0.35,4.43,1.07,6.5,2.08c2.25,1.1,4.68,1.72,6.75,3.31 c1.8,1.39,3.3,2.88,4.5,4.81c1.59,2.55,2.65,5.4,4.57,7.77c0.57,0.7,0.69,1.76,1.06,2.63c0.41,0.99,0.87,1.97,1.53,3.46 c-0.06,1.41-0.1,3.41,1.62,4.99c-0.49,1.72,0.74,3.71-0.78,5.43c-0.26,0.29,0.12,1.17,0.25,1.76c0.13,0.58,0.63,1.37,0.41,1.69 c-0.67,0.99-0.98,1.83-0.1,2.81c-1.16,0.89-0.48,2.14-0.59,3.22c-0.11,1.15-0.13,2.32-0.01,3.47c0.47,4.17-0.86,8.11-1.68,12.07 C477.15,341.94,475.69,343.68,476.08,345.41z"
      ></path>
      <path
        fill="#FFFFFF"
        d="M158.31,332.39c0.01-0.01,0.26-0.28,0.63-0.68c-0.19-0.39-0.39-0.82-0.65-1.34c1.06-2.47,1.02-5.39,0.24-7.84 c-0.96-3-0.22-5.61,0.39-8.31c0.17-0.76,0.72-1.49,0.68-2.4c-0.11-2.49,0.56-4.79,1.49-7.09c0.54-1.32,0.4-2.91,0.86-4.27 c0.61-1.79,1.54-3.47,2.27-5.23c1.55-3.78,4.7-5.86,8.09-7.7c2.35,0.32,3.87-1.48,5.47-2.56c2.06-1.4,4.09-2.11,6.49-2.1 c0.98,0,2.01,0.26,2.81-0.73c0.2-0.25,1.2-0.24,1.45,0.02c1.31,1.37,3.13,0.09,4.3,0.8c1.44,0.88,2.9,0.46,3.82,0.66 c2.14,1.1,4.11,1.7,5.43,2.97c0.73,0.7,2.24,0.36,2.4,1.99c0.08,0.8,1.34,1.46,2.02,2.22c1.96,2.18,4.81,3.77,4.91,7.22 c2.38,1.68,1.92,4.6,3.08,6.75c-0.35,0.38-0.61,0.66-0.81,0.87c0.64,2.76,1.29,5.44,1.89,8.14c0.15,0.68,0.42,1.54,0.15,2.06 c-1.05,1.95-0.32,3.98-0.49,5.96c-0.03,0.35,0.54,0.76,0.63,0.88c-0.53,2.15-1.15,3.99-1.41,5.87c-0.29,2.07-0.05,4.14-0.69,6.27 c-0.57,1.88-0.12,4.08-0.12,6.28c-0.68,1.01-1.44,2.11-2.29,3.37c0.18,2.42-1.14,4.44-2.74,6.35c-0.64,0.76-1.4,1.46-1.9,2.3 c-2.48,4.23-7.32,7.45-11.99,8.59c-1.86,0.45-3.64,0.61-5.49,0.67c-0.51,0.02-1.15-0.15-1.49,0.09c-2.45,1.78-4.9,0.54-7.02-0.34 c-3.51-1.46-6.91-3.32-10.08-5.42c-2.72-1.81-4.75-4.58-6.29-7.39c-1.25-2.27-3.04-4.33-3.57-6.99c-0.09-0.47-0.39-0.92-0.38-1.37 c0.04-1.76-0.12-3.37-1.18-4.94C158.58,335.11,158.61,333.75,158.31,332.39z"
      ></path>
      <path
        fill="#231F20"
        d="M395.77,344.79c0.32,4.04,0.68,8.67,1,12.67c-1.53,3.3-3.04,5.92-3.95,8.73c-0.86,2.66-2.28,4.8-4.11,6.8 c-0.76,0.82-1.65,1.62-2.11,2.6c-1.61,3.45-4.64,5.64-7.26,8.12c-0.82,0.78-1.92,1.49-2.88,2.26c-0.95,0.77-2.02,1.4-2.94,2.2 c-2.33,2.03-5.32,3.21-7.32,5.69c-0.4,0.5-1.28,0.93-1.9,0.89c-2.26-0.15-3.92,1.14-5.69,2.15c-2.95,1.68-6.23,2.39-9.44,3.29 c-1.28,0.36-2.6,0.63-3.92,0.76c-1.27,0.13-2.57,0.03-3.86,0.03c-1.08,1.17-2.43,1.52-3.99,1.59c-1.19,0.05-2.35,0.55-3.54,0.71 c-1.21,0.16-2.41,0.45-3.56,0.63c-1.85,0.3-3.95,0.73-5.89-0.49c-0.74-0.47-2.03-0.28-3.02-0.09c-4.3,0.85-4.29,0.88-8.63-0.02 c-0.37-0.08-0.77,0.01-1.16-0.01c-3.62-0.25-7.26-0.39-10.86-0.82c-1.88-0.23-4.06-0.51-5.45-1.6c-2.13-1.67-4.63-1.39-6.88-2.07 c-2.75-0.82-5.55-1.44-8.19-2.62c-1.08-0.48-2.28-0.71-3.39-1.12c-1.6-0.59-2.98-1.54-4.36-2.55c-3.22-2.35-6.94-4.05-9.97-6.55 c-3.79-3.13-7.36-6.65-10.17-10.77c-1.97-2.9-3.7-5.97-5.79-8.77c-1.32-1.77-1.11-3.9-1.98-5.76c-0.71-1.53-0.92-3.27-0.88-5.06 c0.05-2.47,0.07-4.91-0.59-7.43c-0.79-3,1.02-5.91,1.68-8.86c0.74-3.29,3.06-5.69,4.7-8.47c1.3-2.21,2.96-4.22,4.62-6.18 c0.77-0.91,1.86-1.64,2.94-2.18c1.54-0.76,2.91-1.71,4.31-2.68c1.93-1.32,4.27-2.06,6.46-2.98c1.31-0.55,2.66-1.06,4.03-1.45 c1.89-0.54,3.77-1.06,5.81-0.92c2.3,0.16,4.64,0.18,6.94,0c3.91-0.3,7.56,1.06,11.28,1.75c2.23,0.42,4.38,1.34,6.73,1.41 c1.06,0.03,2.1,0.49,3.15,0.73c1.46,0.34,2.78,1.39,4.46,0.11c0.54-0.41,2.01,0.53,3.08,0.64c2.97,0.32,5.98,0.39,8.93,0.85 c1.77,0.27,3.3,1.29,5.24,0.11c1.55-0.94,3.78,0.7,5.41-0.88c0.07-0.07,0.24-0.07,0.36-0.05c3.19,0.59,5.99-1.1,9-1.57 c0.81-0.13,1.57-0.54,2.35-0.84c0.55-0.21,1.08-0.6,1.65-0.66c4.89-0.53,9.79-0.81,14.72-0.89c3.57-0.06,6.83,0.75,10.04,1.94 c4.84,1.79,9.19,4.42,12.85,8.13c0.94,0.96,1.7,2.12,3.19,2.55c0.74,0.21,1.34,1.15,1.83,1.88c1.34,2,2.4,4.17,3.79,6.17 c0.97,1.4,1.09,3.38,1.64,5.08C394.67,342.07,395.15,343.16,395.77,344.79z M360.89,365.75c-0.93-0.34-1.64-0.51-2.26-0.84 c-2.32-1.24-4.56-2.63-6.93-3.77c-2.05-0.99-4.15-1.86-6.56-1.92c-1.64-0.04-3.33-0.57-4.9-1.13c-5.9-2.13-12.1-2.7-18.25-3.38 c-3.62-0.4-7.17,1.16-10.86,0.76c-1.95-0.21-4-0.36-5.85,0.73c-1.9-0.97-2.57,1.19-3.95,1.65c-2.36,0.79-4.68,0.57-7,0.69 c-0.31,0.26-0.56,0.64-0.89,0.73c-2.4,0.7-4.47,2.12-7.01,2.69c-3.05,0.69-5.83,2.56-8.25,3.69c-0.91,1.26-1.53,2.12-2.07,2.86 c6.18,6.1,13.99,9,22.14,12.55c1.66,0,4.07-0.44,6.22,0.11c2.76,0.71,5.44,1.4,8.32,1.32c1.2-0.03,2.4-0.24,3.69,0.37 c1.16,0.55,2.72,0.21,4.08,0.38c1.32,0.17,2.62,0.5,3.93,0.75c0.12,0.02,0.27,0.04,0.38,0c1.46-0.51,2.89-1.13,4.38-1.51 c1.53-0.39,3.13-0.78,4.69-0.75c3.62,0.06,6.92-1.23,10.32-2.12c1.41-0.37,2.71-0.84,3.98-1.6c1.31-0.78,2.83-1.58,4.29-1.63 c1.75-0.06,2.38-1.63,3.83-2.03c1.43-0.4,6.23-4.99,7.04-6.19C362.49,367.28,361.57,366.4,360.89,365.75z"
      ></path>
      <path
        fill="#231F20"
        d="M174.4,373.06c-2.95-1.7-5.98-3.66-9.2-5.23c-3.36-1.64-5.92-3.84-7.23-7.42c-0.44-1.21-1.18-2.32-1.57-3.56 c-0.83-1.21-1.58-2.48-2.51-3.61c-1.11-1.35-1.1-2.89-1.3-4.5c-0.38-3.13-0.84-6.3-1.77-9.29c-0.54-1.75-0.53-3.55-1.16-5.29 c-0.7-1.92-0.71-4.12-0.84-6.2c-0.13-2.05,0.06-4.12-0.06-6.17c-0.09-1.58,0.17-3.1-0.59-4.77c-0.55-1.2,0.07-3.18,0.68-4.6 c1-2.33,0.73-4.69,0.65-7.04c-0.05-1.47,0.33-2.89,1.13-3.77c1.97-2.17,2.31-5,3.52-7.46c1.16-2.37,1.89-4.94,3.76-6.94 c0.57-0.6,1.02-1.37,1.37-2.13c2-4.35,4.98-7.48,9.89-8.45c1.01-0.2,2.08-0.8,2.81-1.53c2.47-2.47,6.1-2.1,8.85-3.82 c3.52,0.32,7.09-0.63,10.59,0.51c0.81,0.26,1.74,0.3,2.59,0.24c1.78-0.13,3.36,0.54,4.93,1.18c2.31,0.94,4.37,2.41,6.86,3.02 c1.34,0.33,3.82,2.48,4.79,4.02c0.8,1.26,2.46,1.4,3.11,2.88c0.52,1.2,1.4,2.34,2.37,3.24c0.99,0.92,1.16,2.1,1.7,3.17 c0.59,1.16,0.17,2.91,1.81,3.5c1.51,3.53,3.46,6.93,3.34,10.97c-0.03,0.88,0.47,1.68,0.62,2.41c0.34,1.66,1.47,3.23,0.92,5.05 c1.41,4.07,0.52,8.27,0.78,12.41c0.05,0.84,0.19,1.64,0.47,2.49c0.43,1.3,0,2.89-0.11,4.36c-0.04,0.47-0.33,0.92-0.35,1.39 c-0.08,1.73-0.08,3.39-0.69,5.11c-0.55,1.56,0.29,3.45-0.82,5.08c-0.3,0.44-0.14,1.27-0.03,1.89c0.27,1.58-0.47,2.86-1.08,4.19 c-0.55,1.19-1.56,2.22-1.28,3.73c0.06,0.3-0.18,0.69-0.37,0.99c-2.66,4.06-4.34,8.75-8.15,12.08c-1.68,1.47-3.5,2.66-5.39,3.79 c-1.34,0.81-2.86,1.23-4.06,2.39c-0.7,0.67-1.97,0.78-3.01,1.03c-2.71,0.67-5.44,1.26-8.2,1.74c-2.25,0.39-4.44,0.49-6.66,0.56 c-2.59,0.09-5.16,0.13-7.59-1.25C177.02,372.96,175.71,373.19,174.4,373.06z M172.72,307.54c-0.15,3.09,0.61,6.66-1.52,9.81 c-0.18,0.26-0.17,0.85,0,1.12c1.55,2.48,0.46,5.2,0.72,7.79c0.15,1.53-0.47,3.32,0.15,4.56c0.87,1.76,0.08,3.6,0.75,5.09 c0.81,1.81,0.45,3.65,0.75,5.33c2.01,1.68,2.48,3.79,2.2,6.17c2.29,1.36,2.63,4.64,5.49,5.35c2.63,0.66,5.23,1.54,7.83,1.1 c2.01-1.11,3.97-2.03,5.76-3.22c2.01-1.34,2.96-3.56,4.11-5.88c0.05-3.31,0.07-3.36,2.25-5.95c0.1-5.02,1.34-9.87,0.87-14.81 c1.01-1.71,0.18-3.59-0.19-5.09c-0.34-1.34-0.53-2.64-0.55-3.97c-0.02-1.62,0.05-3.24-0.81-4.68c-0.88-1.47-0.77-3.08-0.76-4.02 c-1.41-3.1-2.68-5.57-2.31-8.25c-1.56-1.58-2.91-2.95-4.25-4.31c-2.71,0.35-4.61-1.83-6.82-2.03c-1.56,0.46-2.93,0.89-4.32,1.26 c-2.46,0.67-4.04,2.58-4.54,4.7c-0.49,2.04-1.15,3.68-2.59,5.13c-0.38,0.38-0.41,1.1-0.65,1.64 C173.81,305.34,173.32,306.3,172.72,307.54z"
      ></path>
      <path
        fill="#231F20"
        d="M490.76,317.22c-0.32,1.22-0.67,2.02-0.71,2.83c-0.09,2.05-0.11,4.12-0.01,6.17 c0.12,2.39-0.21,4.67-1.21,6.84c-0.05,0.11-0.24,0.18-0.26,0.28c-0.3,2.32-0.97,4.68-0.78,6.97c0.26,3.12-0.85,5.88-1.82,8.56 c-0.96,2.66-2.1,5.3-3.2,7.93c-0.73,1.77-1.63,3.52-3.18,4.88c-1.48,1.3-2.82,2.75-3.93,4.5c-2,3.15-5.48,4.35-8.88,5.45 c-0.69,0.22-1.51,0.09-2.17,0.36c-1.21,0.5-2.35,1.17-3.88,1.96c-2.94-0.2-6.18,0.4-9.41,1.53c0.08,0.02-18.83-4.61-18.85-4.62 c-1.88-2.07-4.29-3.63-5.95-5.95c-0.22-0.31-0.5-0.61-0.82-0.81c-2.17-1.42-4.22-2.92-5.2-5.5c-0.84-2.22-1.68-4.44-2.85-6.55 c-0.73-1.31-0.66-3.05-1-4.59c-0.66-3.06-1.33-6.13-1.98-9.19c-0.52-2.49-1.33-4.89-1.82-7.36c-0.19-0.95,0.83-2.37,0.42-2.99 c-0.76-1.15-0.31-2.22-0.46-3.3c-0.15-1.12,0.59-2.19,0.64-3.16c0.21-3.76,1.33-7.42,0.93-11.26c-0.29-2.83-0.16-5.65,1.28-8.33 c0.54-1.01,0.21-2.49,0.29-4.05c0.86-1.16,1.88-2.54,2.9-3.92c0.55-2.6,1.83-4.93,3.47-7c0.99-1.26,2.08-2.39,2.88-3.83 c0.69-1.25,1.72-2.52,2.93-3.23c2.13-1.27,4.51-2.12,6.78-3.16c0.43-0.2,0.86-0.41,1.28-0.63c0.11-0.06,0.17-0.2,0.28-0.26 c0.71-0.46,1.4-1.26,2.14-1.31c3.94-0.24,7.05-3.53,11.04-3.14c4.86,0.47,9.81,0.65,14.47,2.29c4.07,1.44,8.45,2.92,11.27,6.1 c3.01,3.38,7.22,6.22,7.78,11.37c1.91,2.65,2.46,5.93,4.07,8.74c1.28,2.23,2.09,4.6,2.03,7.28c-0.03,1.56,0.56,3.12,0.69,4.7 c0.13,1.53-0.01,3.09,0.06,4.63C490.07,316.73,490.55,316.99,490.76,317.22z M461.88,347.6c0.62-1.82,1.09-3.18,1.53-4.55 c0.65-2.04,1.67-4.07,1.78-6.15c0.09-1.66,0.48-3.23,1.02-4.64c0.51-1.36,0.52-2.63,0.67-3.96c0.17-1.44,0.51-2.87,0.74-4.31 c0.06-0.38,0.17-0.91-0.02-1.13c-1.25-1.44-0.86-3.17-0.69-4.7c0.38-3.32-0.95-6.44-0.85-9.7c0.01-0.32-0.33-0.63-0.43-0.97 c-0.63-2.21-1.83-4.13-2.98-6.09c-0.6-1.01-0.98-2.15-1.46-3.24c-3.12-4.05-7.42-5.65-11.38-5.33c-5.15,1.64-8.03,4.41-9.99,8.79 c0,0.42,0,1.45,0,2.47c-1.98,2-2.47,4.64-3.07,7.2c-0.65,2.8-1.01,5.64-0.82,8.54c0.03,0.41-0.4,0.85-0.5,1.06 c0.45,2.1,1.11,4.07,1.25,6.08c0.23,3.11,0.02,6.21,0.71,9.33c0.35,1.6,0.91,2.97,1.73,4.48c-0.98,5.23,2.31,8.47,5.93,11.26 c1.7,2.19,4.19,0.58,6.28,1.76c2.27,1.28,4.24-1.58,6.62-1.44C459.39,350.62,460.81,348.9,461.88,347.6z"
      ></path>
    </g>
  </g>
</svg>
